# xmcd
#
# Track frame offsets: 
#        150
#        17306
#        33250
#        44567
#        61014
#        79862
#        94961
#        109092
#        130484
#
# Disc length: 1981 seconds
#
# Revision: 0
# Processed by: cddbd v1.5.2PL0 Copyright (c) Steve Scherf et al.
# Submitted via: ExactAudioCopy v1.0b3
#
DISCID=6c07bb09
DTITLE=Various Artist - Songs from Sing Out! Volume 55 #3
DYEAR=2013
DGENRE=Folk
TTITLE0=Larry Penn - The Preacher's Whiskey Flask
TTITLE1=Lauren Sheehan - When Johnny Comes Marching Home - Johnny I Ha
TTITLE1=rdly Knew Ya
TTITLE2=Dubl Handi - Shout Little Lula
TTITLE3=Yves Lambert Trio - Les Corps De Métiers
TTITLE4=Spiro - The City and The Stars
TTITLE5=Kari Tauring - Fram Dansar ein Haugkall 
TTITLE6=Anna and Elizabeth - Old Kimball
TTITLE7=Brother Sun - Lady of the Harbor
TTITLE8=Carrie Rodriguez - Carrie Rodriguez
EXTD=
EXTT0=
EXTT1=
EXTT2=
EXTT3=
EXTT4=
EXTT5=
EXTT6=
EXTT7=
EXTT8=
PLAYORDER=
